<?xml version="1.0" encoding="utf-8"?>
<!-- Generator: Adobe Illustrator 19.2.0, SVG Export Plug-In . SVG Version: 6.00 Build 0)  -->
<svg version="1.1" id="Calque_1" xmlns="http://www.w3.org/2000/svg" xmlns:xlink="http://www.w3.org/1999/xlink" x="0px" y="0px"
	 viewBox="0 0 317 307" style="enable-background:new 0 0 317 307;" xml:space="preserve">
<style type="text/css">
	.st0{fill:none;stroke:#000000;stroke-miterlimit:10;}
</style>
<path class="st0" d="M277.6,20c-4.5,27-28,47.6-56.3,47.6S169.6,47,165.1,20h-23.5c3.7,31.7,25.8,57.7,55.4,67.1V284h48.8V87.1
	c29.5-9.4,51.7-35.4,55.4-67.1H277.6z"/>
<path class="st0" d="M35.1,284c4.5-27,28-47.6,56.3-47.6s51.7,20.6,56.3,47.6h23.5c-3.7-31.7-25.8-57.7-55.4-67.1V20H67v196.9
	c-29.5,9.4-51.7,35.4-55.4,67.1H35.1z"/>
</svg>
